<svg xmlns="http://www.w3.org/2000/svg" width="400.667" height="400.666" viewBox="0 0 400.667 400.666"><circle fill="#232323" cx="200.333" cy="200" r="161"/><text transform="translate(289.65 203.833)" fill="#FFF" font-family="sans-serif" font-size="11">990</text><text transform="rotate(10.003 -1109.58 1753.99)" fill="#FFF" font-family="sans-serif" font-size="11">985</text><text transform="rotate(19.999 -522.528 919.474)" fill="#FFF" font-family="sans-serif" font-size="11">980</text><text transform="rotate(-10.003 1220.857 -1557.615)" fill="#FFF" font-family="sans-serif" font-size="11">995</text><text transform="rotate(-19.999 636.316 -707.539)" fill="#FFF" font-family="sans-serif" font-size="11">1000</text><text transform="rotate(-30 438.664 -432.007)" fill="#FFF" font-family="sans-serif" font-size="11">1005</text><text transform="rotate(-40.002 338.3 -292.165)" fill="#FFF" font-family="sans-serif" font-size="11">1010</text><text transform="rotate(-49.998 276.865 -206.55)" fill="#FFF" font-family="sans-serif" font-size="11">1015</text><text transform="rotate(-60 234.824 -147.945)" fill="#FFF" font-family="sans-serif" font-size="11">1020</text><text transform="rotate(-70.001 203.841 -104.773)" fill="#FFF" font-family="sans-serif" font-size="11">1025</text><text transform="rotate(-80.003 179.75 -71.192)" fill="#FFF" font-family="sans-serif" font-size="11">1030</text><text transform="rotate(-90 160.207 -43.961)" fill="#FFF" font-family="sans-serif" font-size="11">1035</text><path fill="none" stroke="#FFF" stroke-width="2" stroke-miterlimit="10" d="M313.562 200.333h10.605"/><path fill="none" stroke="#FFF" stroke-miterlimit="10" d="M315.803 196.3l6-.209m-6.199-3.818l5.988-.419m-6.328-3.599l5.97-.627m-6.45-3.377l5.945-.834"/><path fill="none" stroke="#FFF" stroke-width="2" stroke-miterlimit="10" d="M311.784 219.989l10.443 1.841"/><path fill="none" stroke="#FFF" stroke-miterlimit="10" d="M314.691 216.407l5.945.836m-5.442-4.837l5.971.628m-5.608-4.643l5.988.419m-5.765-4.446l6 .21"/><path fill="none" stroke="#FFF" stroke-width="2" stroke-miterlimit="10" d="M306.619 239.038l9.965 3.627"/><path fill="none" stroke="#FFF" stroke-miterlimit="10" d="M310.104 236.016l5.71 1.855m-4.521-5.709l5.772 1.656m-4.716-5.547l5.824 1.453m-4.905-5.379l5.872 1.249m-16.958 28.935l5.301 2.82m-3.461-6.408l5.396 2.633m-3.681-6.281l5.484 2.441m-3.896-6.148l5.565 2.249m1.275-65.568l5.913-1.042m-6.671-2.918l5.873-1.248m-6.77-2.684l5.827-1.452m-6.859-2.445l5.772-1.655m-6.939-2.204l5.711-1.855m-7.013-1.962l5.643-2.052m-7.077-1.716l5.568-2.248m-7.133-1.469l5.487-2.441m-7.18-1.218l5.398-2.631m-7.218-.967l5.303-2.818m-7.248-.714l5.202-3.002m-7.268-.461l5.094-3.18m-7.281-.208l4.98-3.356m-7.283.047l4.859-3.529m-7.276.302l4.733-3.696m-7.262.555l4.602-3.859m-7.238.808l4.464-4.017m-7.206 1.06l4.322-4.171m-7.164 1.312l4.172-4.32m-7.113 1.562l4.019-4.463m-7.054 1.808l3.86-4.599m-6.986 2.052l3.697-4.731m-6.91 2.295l3.529-4.857m-6.825 2.535l3.358-4.977m-6.733 2.771l3.182-5.091m-6.632 3.005l3.002-5.2m-6.523 3.235l2.819-5.302m-6.406 3.46l2.631-5.396m-6.281 3.682l2.442-5.485m-6.149 3.899l2.249-5.567m-6.009 4.111l2.053-5.642m-5.861 4.318l1.854-5.71m-5.707 4.519l1.655-5.77m-5.546 4.716l1.452-5.825m-5.378 4.906l1.248-5.872m-5.204 5.091l1.043-5.912m-5.024 5.269l.836-5.944m-4.837 5.442l.628-5.971m-4.643 5.608l.419-5.989m-4.446 5.766l.21-5.999m-8.273 5.973l-.209-5.999m-3.818 6.199l-.418-5.988m-3.6 6.328l-.627-5.971m-3.377 6.451l-.835-5.945"/><path fill="none" stroke="#FFF" stroke-width="2" stroke-miterlimit="10" d="M311.9 180.666l10.443-1.842m-15.496-17.238l9.965-3.627m-18.253-14.285l9.184-5.302m-20.457-10.898l8.124-6.817m-22.039-7.18l6.816-8.124m-22.951-3.245l5.303-9.184m-23.166.791L243 83.75m-22.676 4.8l1.841-10.443m-21.498 8.665V76.168"/></svg>