<svg xmlns="http://www.w3.org/2000/svg" width="400.667" height="400.666" viewBox="0 0 400.667 400.666"><filter filterUnits="objectBoundingBox" id="a"><feGaussianBlur stdDeviation="5" result="blur" in="SourceAlpha"/><feOffset result="offsetBlurredAlpha" in="blur"/><feMerge><feMergeNode in="offsetBlurredAlpha"/><feMergeNode in="SourceGraphic"/></feMerge></filter><path fill="#232323" filter="url(#a)" d="M200.333 47c-84.497 0-153 68.503-153 153s68.503 153 153 153 153-68.503 153-153-68.502-153-153-153zm75.517 174.422A78.5 78.5 0 0 0 278.834 200a78.49 78.49 0 0 0-2.958-21.332l49.113-13.869c3.155 11.193 4.846 23 4.846 35.201 0 12.256-1.704 24.114-4.886 35.351l-49.099-13.929z"/><path fill="none" stroke="#FFF" stroke-width="4" stroke-miterlimit="10" d="M200.333 49.902v23.432m88.226 5.235l-13.773 18.956m68.298 56.094l-22.285 7.24m0 78.285l22.284 7.241m-54.527 75.049l-13.772-18.957M200.331 350.1v-23.433m-88.226-5.234l13.773-18.957m-68.299-56.093l22.285-7.24M57.58 153.617l22.284 7.24m32.242-82.289l13.773 18.955"/><path fill="none" stroke="#FFF" stroke-width="2" stroke-miterlimit="10" d="M219.147 51.091l-2 15.852m20.515-12.32l-3.971 15.478m21.897-9.653l-5.879 14.859m22.934-6.832l-7.695 14.004m38.131 8.112l-10.934 11.649m23.836 2.091l-12.309 10.188m23.387 5.061l-13.488 8.565m22.568 7.953l-14.455 6.805m28.441 47.677l-15.945 1.007m13.583-19.707l-15.693 2.998m18.055 34.551l-15.946-1m13.583 19.7l-15.695-2.991m4.068 38.772l-14.459-6.801m5.378 23.318l-13.492-8.559m2.413 23.807l-12.312-10.182m-.59 23.922l-10.941-11.645m-19.497 33.758l-7.701-14.001m-9.354 22.027l-5.886-14.857m-12.04 20.681l-3.978-15.478m-14.537 19.009l-2.006-15.853m-35.618 15.851l2.001-15.853M163 345.375l3.972-15.479m-21.898 9.654l5.881-14.859m-22.935 6.832l7.697-14.003m-38.134-8.111l10.938-11.651m-23.841-2.089l12.312-10.19m-23.39-5.059l13.492-8.566m-22.573-7.952l14.46-6.807M52.896 228.12l15.699-2.997M50.534 209.42l15.951-1.006m-15.95-17.843l15.951 1.001m-13.589-19.701l15.701 2.992m-4.074-38.774l14.464 6.803m-5.383-23.321l13.498 8.563m-2.418-23.812l12.318 10.188m.586-23.928l10.944 11.651m19.494-33.765l7.703 14.008m9.353-22.034l5.886 14.864m12.041-20.688l3.977 15.485m14.538-19.016l2.005 15.861"/><text transform="translate(193.548 98.815)" fill="#FFF" stroke="#FFF" stroke-miterlimit="10" font-family="sans-serif" font-size="25">0</text><text transform="translate(176.656 162.587)" fill="#FFF" stroke="#FFF" stroke-width=".5" stroke-miterlimit="10" font-family="sans-serif" font-size="25">ALT</text><text transform="translate(257.16 120.982)" fill="#FFF" stroke="#FFF" stroke-miterlimit="10" font-family="sans-serif" font-size="25">1</text><text transform="translate(299.492 160.877)" fill="#FFF" stroke="#FFF" stroke-miterlimit="10" font-family="sans-serif" font-size="25">2</text><text transform="translate(299.492 256.763)" fill="#FFF" stroke="#FFF" stroke-miterlimit="10" font-family="sans-serif" font-size="25">3</text><text transform="translate(258.91 295.232)" fill="#FFF" stroke="#FFF" stroke-miterlimit="10" font-family="sans-serif" font-size="25">4</text><text transform="translate(193.66 318.482)" fill="#FFF" stroke="#FFF" stroke-miterlimit="10" font-family="sans-serif" font-size="25">5</text><text transform="translate(89.16 242.763)" fill="#FFF" stroke="#FFF" stroke-miterlimit="10" font-family="sans-serif" font-size="25">7</text><text transform="translate(87.16 175.232)" fill="#FFF" stroke="#FFF" stroke-miterlimit="10" font-family="sans-serif" font-size="25">8</text><text transform="translate(129.91 119.982)" fill="#FFF" stroke="#FFF" stroke-miterlimit="10" font-family="sans-serif" font-size="25">9</text><path fill="none" d="M174.243 243.809l61.533 38.566a89.298 89.298 0 0 0 8.936-4.471l-66.101-41.43-4.368 7.335zm-9.084 15.251l47.482 29.761a89.123 89.123 0 0 0 12.055-2.517l-55.169-34.578-4.368 7.334zm49.573-20.89a40.203 40.203 0 0 1-11.956 2.578l34.692 21.744-9.571-16.07-13.165-8.252zm-58.656 36.142l18.447 11.562a89.369 89.369 0 0 0 21.967 3.696l-36.045-22.592-4.369 7.334z"/><path fill="#FFF" d="M154.451 277.04a89.218 89.218 0 0 0 20.072 8.833l-18.447-11.562-1.625 2.729zm5.993-10.062l36.045 22.592c1.275.054 2.555.09 3.844.09 4.176 0 8.285-.286 12.308-.839l-47.482-29.761-4.715 7.918zm9.083-15.252l55.169 34.578a88.997 88.997 0 0 0 11.079-3.929l-61.533-38.566-4.715 7.917zm30.806-10.893a40.288 40.288 0 0 1-20.868-5.794l-.855 1.437 66.101 41.43c.482-.275.967-.544 1.443-.828l-8.686-14.584-34.692-21.744c-.809.047-1.621.083-2.443.083zm20.807-5.757a40.442 40.442 0 0 1-6.408 3.095l13.165 8.252-6.757-11.347z"/><text transform="translate(209.888 81.333)" fill="#FFF" font-family="sans-serif" font-size="11">FEET</text><text transform="translate(174.315 81.333)" fill="#FFF" font-family="sans-serif" font-size="11">100</text><text transform="translate(175.376 137.582)" fill="#FFF" font-family="sans-serif" font-size="11">1000 FEET</text><text transform="translate(104.334 191.915)"><tspan x="0" y="0" fill="#FFF" font-family="sans-serif" font-size="12">CALIBRATED</tspan><tspan x="24.453" y="12" fill="#FFF" font-family="sans-serif" font-size="12">TO</tspan><tspan x="1.936" y="24" fill="#FFF" font-family="sans-serif" font-size="12">25 000 FEET</tspan></text></svg>