<svg xmlns="http://www.w3.org/2000/svg" width="400.667" height="400.666" viewBox="0 0 400.667 400.666"><filter filterUnits="objectBoundingBox" id="a"><feGaussianBlur stdDeviation="5" result="blur" in="SourceAlpha"/><feOffset result="offsetBlurredAlpha" in="blur"/><feMerge><feMergeNode in="offsetBlurredAlpha"/><feMergeNode in="SourceGraphic"/></feMerge></filter><g filter="url(#a)"><path fill="#110F0F" d="M387.667 375c0 6.627-5.373 12-12 12h-350c-6.627 0-12-5.373-12-12V25c0-6.627 5.373-12 12-12h350c6.627 0 12 5.373 12 12v350z"/><path fill="none" stroke="#FFF" stroke-width=".5" stroke-miterlimit="10" d="M387.667 375c0 6.627-5.373 12-12 12h-350c-6.627 0-12-5.373-12-12V25c0-6.627 5.373-12 12-12h350c6.627 0 12 5.373 12 12v350z"/></g></svg>