<svg xmlns="http://www.w3.org/2000/svg" width="400.667" height="400.666" viewBox="0 0 400.667 400.666"><filter filterUnits="objectBoundingBox" id="a"><feGaussianBlur stdDeviation="5" result="blur" in="SourceAlpha"/><feOffset result="offsetBlurredAlpha" in="blur"/><feMerge><feMergeNode in="offsetBlurredAlpha"/><feMergeNode in="SourceGraphic"/></feMerge></filter><g filter="url(#a)"><path fill="#FFF" d="M211.838 160.802l-11.495-28.434-.005.018-.005-.018-11.495 28.434L200.333 207l.005-.023.005.023z"/><path fill="none" stroke="#B2B2B2" stroke-width=".5" stroke-miterlimit="10" d="M211.838 160.802l-11.495-28.434-.005.018-.005-.018-11.495 28.434L200.333 207l.005-.023.005.023z"/></g><g filter="url(#a)"><path fill="#232323" d="M200.331 196.091s-9.492 18.192-9.331 24.818c.062 2.56 1.828 4.228 9.331 4.228s9.114-1.709 9.146-4.228c.083-6.507-8.809-24.493-8.809-24.493"/><path fill="none" stroke="#353535" stroke-width=".5" stroke-miterlimit="10" d="M200.331 196.091s-9.492 18.192-9.331 24.818c.062 2.56 1.828 4.228 9.331 4.228s9.114-1.709 9.146-4.228c.083-6.507-8.809-24.493-8.809-24.493"/></g></svg>