<svg xmlns="http://www.w3.org/2000/svg" width="400.667" height="400.666" viewBox="0 0 400.667 400.666"><circle fill="#232323" cx="200.333" cy="200" r="161"/><path fill="none" stroke="#FFF" stroke-width="2" stroke-miterlimit="10" d="M200.333 350.099v-23.432m13.083 22.861l-1.393-15.919m27.159 11.376l-4.136-15.435m28.722 6.486l-6.753-14.482m29.412 1.401l-9.166-13.09m29.209-3.728l-11.3-11.3m28.119-8.743l-13.091-9.165m26.173-13.493l-14.484-6.753m23.433-17.833l-15.437-4.136m19.981-21.631l-15.921-1.392m15.921-24.773l-15.92 1.395m11.377-27.162l-15.436 4.138m6.488-28.724l-14.483 6.755m1.401-29.414l-13.089 9.167m-3.73-29.21l-11.298 11.3m-8.745-28.118l-9.164 13.09m-13.494-26.173l-6.752 14.484m-17.834-23.433l-4.135 15.436m-21.632-19.98l-1.391 15.92m-24.773-15.92l1.394 15.919m-27.16-11.376l4.137 15.435m-28.724-6.487l6.755 14.483m-29.414-1.401l9.167 13.089m-29.21 3.729l11.3 11.299m-28.119 8.744l13.09 9.164m-26.172 13.495l14.483 6.752m-23.432 17.834l15.436 4.135m-19.98 21.632l15.919 1.391m-15.92 24.773l15.919-1.394m-11.376 27.16l15.436-4.136m-6.488 28.723l14.483-6.754m-1.402 29.413l13.09-9.166m3.728 29.21l11.3-11.301m8.743 28.12l9.165-13.091m13.493 26.174l6.753-14.484m17.833 23.433l4.136-15.437m21.631 19.981l1.392-15.92m37.758 14.209l-4.068-23.077m29.34 16.305l-8.013-22.019m31.726 10.962l-11.716-20.293m33.149 5.286l-15.062-17.95m33.563-.55l-17.95-15.063m32.957-6.37l-20.293-11.717m31.35-11.996l-22.018-8.014m28.79-17.258l-23.075-4.069M350.433 200h-23.432m21.152-26.064l-23.075 4.068m16.303-29.34l-22.018 8.013m10.961-31.726l-20.292 11.716m5.285-33.148l-17.949 15.061m-.552-33.562l-15.061 17.949m-6.371-32.956l-11.716 20.292m-11.996-31.349l-8.014 22.017M226.4 52.182l-4.069 23.074m-21.996-25.355l-.001 23.431m-26.063-21.151l4.068 23.075m-29.34-16.303l8.013 22.018M125.286 70.01l11.715 20.292m-33.148-5.285l15.062 17.949m-33.563.551l17.95 15.062m-32.957 6.37l20.293 11.716m-31.35 11.997l22.019 8.014m-28.792 17.258l23.077 4.068m-25.357 21.997l23.432-.001m-21.152 26.065l23.076-4.07m-16.304 29.342l22.019-8.015m-10.963 31.728l20.294-11.717m-5.287 33.15l17.951-15.064m.55 33.565l15.063-17.952m6.37 32.959L137 309.695m11.997 31.352l8.013-22.021m17.259 28.793l4.068-23.078"/><path fill="#FFF" stroke="#FFF" stroke-miterlimit="10" d="M192.637 101.333V79.786h.469l14.341 16.518V79.786h2.124v21.548h-.483l-14.224-16.316v16.316h-2.227zm-57.619 7.786l-1.585.916c-.452-1.449-.468-2.755-.05-3.919.419-1.162 1.186-2.064 2.299-2.708a5.532 5.532 0 0 1 2.588-.754c.915-.035 1.746.15 2.492.556s1.316.95 1.711 1.634c.773 1.339.72 2.784-.161 4.336.923-.128 1.792-.038 2.608.27 1.153.434 2.024 1.162 2.614 2.184.509.882.762 1.856.759 2.925a5.598 5.598 0 0 1-.832 2.954c-.552.9-1.324 1.638-2.317 2.211-1.34.773-2.68 1.032-4.02.778-1.341-.256-2.579-1.051-3.718-2.387l1.522-.879c.851.854 1.655 1.362 2.416 1.523.971.201 1.953.014 2.946-.56 1.128-.651 1.838-1.512 2.131-2.584.293-1.07.178-2.061-.347-2.97-.351-.606-.849-1.075-1.496-1.406s-1.335-.465-2.063-.401c-.729.064-1.715.412-2.957 1.044l-.823-1.427c.712-.411 1.287-.91 1.729-1.498.44-.588.681-1.152.721-1.692a2.542 2.542 0 0 0-.335-1.498c-.391-.676-.998-1.105-1.822-1.288-.824-.182-1.648-.034-2.473.441-.67.387-1.139.909-1.408 1.566-.268.658-.311 1.535-.129 2.633zm12-6.927l-1.586.915c-.452-1.449-.469-2.755-.05-3.918.419-1.163 1.185-2.065 2.298-2.708a5.532 5.532 0 0 1 2.588-.754c.916-.034 1.746.151 2.492.556.747.406 1.317.95 1.712 1.633.773 1.34.72 2.785-.161 4.336.922-.128 1.791-.038 2.608.27 1.153.434 2.024 1.162 2.614 2.184.509.881.762 1.856.758 2.924a5.58 5.58 0 0 1-.832 2.954c-.551.9-1.323 1.638-2.317 2.212-1.339.773-2.679 1.032-4.019.777-1.342-.256-2.58-1.05-3.718-2.386l1.522-.879c.85.854 1.654 1.362 2.416 1.523.971.201 1.953.015 2.947-.56 1.127-.65 1.838-1.512 2.131-2.583.292-1.071.177-2.061-.349-2.97-.35-.606-.849-1.075-1.495-1.406s-1.335-.465-2.064-.401c-.729.064-1.714.412-2.955 1.044l-.824-1.427c.711-.411 1.287-.91 1.729-1.498.439-.588.681-1.152.721-1.692a2.543 2.543 0 0 0-.336-1.498c-.391-.676-.998-1.105-1.821-1.288-.824-.182-1.648-.035-2.474.441-.669.387-1.138.909-1.406 1.566-.27.657-.313 1.535-.129 2.633zm-48.591 50.662l-.915 1.585c-1.116-1.029-1.783-2.152-2.003-3.369-.218-1.216-.006-2.381.637-3.495a5.541 5.541 0 0 1 1.864-1.947c.775-.487 1.587-.742 2.436-.764.85-.022 1.615.165 2.299.559 1.34.773 2.016 2.052 2.029 3.835a5.235 5.235 0 0 1 2.394-1.07c1.215-.2 2.334-.006 3.355.584.882.509 1.588 1.227 2.119 2.154s.783 1.918.757 2.974c-.027 1.056-.328 2.08-.901 3.074-.773 1.339-1.805 2.233-3.092 2.683-1.29.45-2.76.38-4.413-.208l.879-1.522c1.163.314 2.114.352 2.854.111.941-.312 1.699-.965 2.273-1.958.65-1.127.835-2.229.553-3.303-.281-1.074-.877-1.875-1.786-2.399a3.55 3.55 0 0 0-1.998-.47 3.731 3.731 0 0 0-1.988.685c-.599.42-1.278 1.214-2.038 2.382l-1.427-.824c.411-.712.66-1.433.748-2.162.087-.729.014-1.338-.222-1.826a2.54 2.54 0 0 0-1.04-1.129c-.676-.391-1.417-.458-2.222-.205-.805.255-1.444.794-1.921 1.619-.387.67-.531 1.356-.436 2.06.097.706.498 1.488 1.205 2.346zm9.846-7.41c-2.051-1.184-3.509-2.319-4.376-3.407-.866-1.087-1.355-2.199-1.471-3.336a5.208 5.208 0 0 1 .69-3.196 5.33 5.33 0 0 1 2.452-2.235c1.054-.481 2.299-.625 3.736-.429 1.438.196 3.137.859 5.096 1.991 1.952 1.127 3.371 2.259 4.256 3.395.886 1.136 1.385 2.286 1.497 3.451s-.122 2.25-.704 3.258a5.197 5.197 0 0 1-2.407 2.19c-1.03.467-2.24.598-3.63.392s-3.102-.898-5.139-2.074zm.875-1.454c1.757 1.014 3.175 1.624 4.255 1.83 1.08.205 2.03.136 2.85-.209.82-.344 1.427-.858 1.821-1.542.398-.691.544-1.467.435-2.329-.108-.861-.529-1.71-1.26-2.546-.884-1.027-2.104-1.99-3.663-2.89-1.566-.904-2.948-1.471-4.146-1.703-1.197-.23-2.203-.175-3.017.168-.814.342-1.417.852-1.808 1.529-.398.691-.542 1.473-.43 2.345.112.874.526 1.728 1.243 2.564.717.837 1.957 1.765 3.72 2.783zm.769 120.458l.86 1.49c-1.558.843-3.112 1.057-4.665.643-1.552-.414-2.745-1.344-3.579-2.789-.826-1.431-1.033-2.855-.619-4.272.412-1.418 1.246-2.489 2.501-3.214a5.883 5.883 0 0 1 2.846-.799c1.016-.025 2.534.191 4.554.646l6.408 1.466-4.143-7.175 1.502-.866 6.097 10.561-9.851-2.234c-1.987-.459-3.397-.69-4.23-.693a4.463 4.463 0 0 0-2.288.596c-.874.504-1.439 1.265-1.694 2.281s-.109 1.997.436 2.941c.574.993 1.383 1.628 2.425 1.905 1.043.274 2.19.112 3.44-.487zm-16.058-15.681l-.182-.315 10.846-6.262-1.086-1.882 1.48-.854 1.086 1.882 3.616-2.087.891 1.543-3.616 2.088 4.297 7.441-17.332-1.554zm11.556-5.034l-6.531 3.771 9.191.836-2.66-4.607zm48.389 56.955l1.491.86c-.928 1.509-2.167 2.472-3.72 2.889-1.551.417-3.049.208-4.494-.626-1.431-.826-2.322-1.955-2.673-3.391-.352-1.434-.165-2.778.56-4.033.509-.882 1.198-1.586 2.065-2.115s2.29-1.102 4.267-1.718l6.282-1.935-7.174-4.142.867-1.502 10.561 6.098-9.648 2.991c-1.951.595-3.288 1.1-4.011 1.514a4.472 4.472 0 0 0-1.683 1.66c-.505.873-.614 1.815-.326 2.823.287 1.007.903 1.784 1.847 2.329.994.573 2.012.719 3.053.438 1.041-.282 1.953-.995 2.736-2.14zm-16.307-2.932l-3.055-1.764 8.978-15.551 1.543.891-8.1 14.029 2.442 1.409-1.808.986zm127.867-1.113l-3.056 1.764-8.979-15.551 1.544-.892 8.099 14.029 2.442-1.41-.05 2.06zm-16.69 9.635l-.854-1.479 5.525-3.19-1.67-4.689c-.562.588-1.112 1.038-1.655 1.352-1.415.817-2.855 1.017-4.321.6-1.466-.418-2.627-1.366-3.481-2.847-.59-1.021-.895-2.096-.915-3.221-.021-1.126.242-2.148.787-3.069.544-.921 1.345-1.686 2.402-2.296 1.262-.729 2.548-.957 3.86-.686 1.313.272 2.408.971 3.285 2.1l-1.597.922c-.466-.53-.949-.899-1.45-1.108-.501-.209-1.055-.291-1.664-.245a3.937 3.937 0 0 0-1.693.52c-1.021.59-1.676 1.484-1.963 2.681-.285 1.198-.093 2.376.578 3.538.604 1.048 1.428 1.709 2.468 1.981 1.041.272 2.114.089 3.221-.55.916-.529 1.865-1.449 2.848-2.758l3.024 8.558-6.735 3.886zm56.344-55.944l-1.765 3.056-15.551-8.979.892-1.543 14.028 8.099 1.41-2.442.986 1.809zm-9.799 5.742l.86-1.49c1.509.928 2.472 2.167 2.889 3.719.417 1.551.209 3.05-.626 4.495-.825 1.431-1.955 2.322-3.391 2.672-1.434.352-2.778.165-4.033-.56a5.892 5.892 0 0 1-2.115-2.064c-.528-.868-1.102-2.29-1.718-4.267l-1.935-6.282-4.142 7.174-1.501-.867 6.097-10.561 2.991 9.648c.595 1.95 1.1 3.287 1.514 4.011a4.482 4.482 0 0 0 1.66 1.684c.874.505 1.815.614 2.823.326 1.008-.287 1.784-.903 2.329-1.848.574-.993.719-2.012.438-3.053-.281-1.042-.995-1.954-2.14-2.737zm7.068-113.178l-.097 1.762-8.791-.532c.516.455.916.929 1.201 1.423.713 1.235.873 2.541.479 3.917-.395 1.376-1.244 2.44-2.547 3.193-.896.517-1.824.775-2.787.776s-1.879-.259-2.747-.778a5.768 5.768 0 0 1-2.066-2.102 5.484 5.484 0 0 1-.753-2.733c-.01-.968.239-1.876.746-2.724s1.187-1.518 2.039-2.01c.635-.366 1.376-.623 2.227-.77.85-.147 1.96-.174 3.33-.08l9.766.658zm-9.264 3.072a3.649 3.649 0 0 0-2.292-1.762c-1.007-.27-1.964-.143-2.874.383a3.631 3.631 0 0 0-1.757 2.291c-.269 1.008-.142 1.963.379 2.866s1.286 1.491 2.292 1.762a3.625 3.625 0 0 0 2.863-.376c.909-.524 1.498-1.291 1.767-2.298s.144-1.963-.378-2.866zm-40.545-45.214l-1.585-.915c1.029-1.116 2.152-1.783 3.369-2.003 1.216-.218 2.381-.006 3.495.637a5.541 5.541 0 0 1 1.947 1.864c.487.775.742 1.587.764 2.436.022.85-.165 1.615-.559 2.299-.773 1.34-2.052 2.016-3.835 2.029a5.235 5.235 0 0 1 1.07 2.394c.2 1.215.006 2.334-.584 3.355-.509.882-1.227 1.588-2.154 2.119s-1.918.783-2.974.757c-1.056-.027-2.08-.328-3.074-.901-1.339-.773-2.233-1.805-2.683-3.092-.45-1.29-.38-2.76.208-4.413l1.522.879c-.314 1.163-.352 2.114-.111 2.854.312.941.965 1.699 1.958 2.273 1.127.65 2.229.835 3.303.553 1.074-.281 1.875-.877 2.399-1.786a3.55 3.55 0 0 0 .47-1.998 3.731 3.731 0 0 0-.685-1.988c-.42-.599-1.214-1.278-2.382-2.038l.824-1.427c.712.411 1.433.66 2.162.748.729.087 1.338.014 1.826-.222a2.54 2.54 0 0 0 1.129-1.04c.391-.676.458-1.417.205-2.222-.255-.805-.794-1.444-1.619-1.921-.67-.387-1.356-.531-2.06-.436-.706.096-1.488.498-2.346 1.205zM80.119 212.927v-2.212l15.527-4.402-15.527-6.177v-.447l15.527-6.105-15.527-4.477v-2.195l21.548 6.191v.4l-16.304 6.394 16.304 6.519v.402l-21.548 6.109zm126.152 89.752l-1.831 1.099c-1.289-2.373-2.778-3.56-4.468-3.56-.723 0-1.401.168-2.036.505s-1.118.789-1.45 1.355-.498 1.167-.498 1.802c0 .723.244 1.431.732 2.124.674.957 1.904 2.109 3.691 3.457 1.797 1.357 2.915 2.339 3.354 2.944.762 1.016 1.143 2.114 1.143 3.296 0 .938-.225 1.792-.674 2.563s-1.082 1.379-1.897 1.824-1.702.667-2.659.667c-1.016 0-1.965-.251-2.849-.754s-1.819-1.428-2.805-2.776l1.758-1.333c.811 1.074 1.501 1.782 2.073 2.124s1.194.513 1.868.513c.869 0 1.58-.264 2.131-.791s.828-1.177.828-1.948c0-.469-.098-.923-.293-1.362s-.552-.918-1.069-1.436c-.283-.273-1.211-.991-2.783-2.153-1.865-1.377-3.145-2.603-3.838-3.677s-1.04-2.153-1.04-3.237c0-1.563.593-2.92 1.78-4.072s2.629-1.729 4.329-1.729c1.309 0 2.495.349 3.56 1.047s2.045 1.868 2.943 3.508zm114.276-109.376v12.349h-2.109v-10.195h-6.753v10.107h-2.109v-10.107h-8.467v10.107H299v-12.261h21.547z"/></svg>