<svg xmlns="http://www.w3.org/2000/svg" width="400.667" height="400.666" viewBox="0 0 400.667 400.666"><filter filterUnits="objectBoundingBox" id="b"><feGaussianBlur stdDeviation="5" result="blur" in="SourceAlpha"/><feOffset result="offsetBlurredAlpha" in="blur"/><feMerge><feMergeNode in="offsetBlurredAlpha"/><feMergeNode in="SourceGraphic"/></feMerge></filter><linearGradient id="a" gradientUnits="userSpaceOnUse" x1="200.667" y1="349.933" x2="200.667" y2="50.4"><stop offset=".5" stop-color="#503723"/><stop offset=".5" stop-color="#558ebb"/></linearGradient><path fill="url(#a)" filter="url(#b)" d="M200.667 50.4C117.953 50.4 50.9 117.453 50.9 200.167s67.053 149.767 149.767 149.767 149.767-67.053 149.767-149.767S283.38 50.4 200.667 50.4zm0 250.1c-55.413 0-100.334-44.921-100.334-100.334 0-55.412 44.921-100.333 100.334-100.333 55.412 0 100.333 44.92 100.333 100.333S256.079 300.5 200.667 300.5z"/><path fill="none" stroke="#FFF" stroke-width="4" stroke-miterlimit="10" d="M50.667 200.333h49.666m200.416 0h49.684M78.415 131.582l33.667 20.333m176.669 0l34.834-20.333M149.418 113.75l-20-34.5m122.666 34.5l20.667-34.5"/><path fill="#FFF" d="M185.918 60.085h29.333l-14.666 38.833zm-66.834 57.332l-7.002 6.834 14.502 7.331zm155 14.165l7.167-14.165 7.5 7.083z"/></svg>