<svg xmlns="http://www.w3.org/2000/svg" width="400.667" height="400.666" viewBox="0 0 400.667 400.666"><circle fill="#232323" cx="200.333" cy="200" r="161"/><path fill="none" stroke="#F9FF00" stroke-width="10" stroke-miterlimit="10" d="M57.4 175.086C43.974 251.226 91.471 314.98 149.825 336"/><path fill="none" stroke="#F00" stroke-width="10" stroke-miterlimit="10" d="M106.854 89.039c-28.113 23.588-44.001 55.344-49.512 86.375"/><path fill="none" stroke="#007511" stroke-width="10" stroke-miterlimit="10" d="M151.628 336.661c40.369 14.45 85.524 10.282 121.509-10.494 62.801-36.257 97.126-122.438 53.195-198.528"/><path fill="none" stroke="#FFF" stroke-width="4" stroke-miterlimit="10" d="M296.814 85.02l-15.062 17.948m28.278 33.699l20.291-11.714m17.828 48.985l-23.073 4.068m23.073 48.059l-23.073-4.068m5.244 53.053l-20.29-11.714m-13.218 51.646l-15.06-17.947m-30.085 44.011l-8.012-22.015m-43.324 31.067l.001-23.428m-51.337 14.375l8.013-22.015m-53.158-4.05l15.061-17.946m-48.568-21.987l20.29-11.713m-38.118-37.271l23.073-4.068m-23.072-48.061l23.072 4.07m-5.242-53.055l20.289 11.717m13.219-51.648l15.058 17.949"/><path fill="none" stroke="#FFF" stroke-width="2" stroke-miterlimit="10" d="M315.313 103.523l-12.238 10.274"/><path fill="none" stroke="#FFF" stroke-width="4" stroke-miterlimit="10" d="M251.669 58.956l-8.014 22.017"/><path fill="none" stroke="#FFF" stroke-width="2" stroke-miterlimit="10" d="M275.381 70.017l-7.986 13.838"/><path fill="none" stroke="#FFF" stroke-width="4" stroke-miterlimit="10" d="M200.333 49.904v23.43"/><path fill="none" stroke="#FFF" stroke-width="2" stroke-miterlimit="10" d="M226.398 52.188l-2.772 15.735m-10.209-17.445l-.973 11.141m26.738-6.598l-2.893 10.803m27.478-1.855l-4.725 10.136m27.382 2.945l-6.414 9.162m61.366 62.455l-15.014 5.469m24.065 45.866l-15.979.004m6.927 51.331l-15.017-5.461m-11.046 50.604l-12.245-10.267m-27.687 43.774l-7.995-13.837m-40.989 31.666l-2.781-15.737m-49.347 15.737l2.77-15.739m-51.754-2.089l7.986-13.843m-47.919-19.664l12.239-10.278m-38.303-34.866l15.016-5.473M50.235 200l15.982-.006m-6.93-51.33l15.02 5.461m11.044-50.605l12.247 10.268"/><text transform="translate(257.66 123.649)" fill="#FFF" stroke="#FFF" stroke-width=".5" stroke-miterlimit="10" font-family="sans-serif" font-size="20">20</text><text transform="translate(292.16 187.149)" fill="#FFF" stroke="#FFF" stroke-width=".5" stroke-miterlimit="10" font-family="sans-serif" font-size="20">40</text><text transform="translate(267.385 263.336)" fill="#FFF" stroke="#FFF" stroke-width=".5" stroke-miterlimit="10" font-family="sans-serif" font-size="20">60</text><text transform="translate(225.006 302.149)" fill="#FFF" stroke="#FFF" stroke-width=".5" stroke-miterlimit="10" font-family="sans-serif" font-size="20">80</text><text transform="translate(153.001 302.149)" fill="#FFF" stroke="#FFF" stroke-width=".5" stroke-miterlimit="10" font-family="sans-serif" font-size="20">100</text><text transform="translate(107.16 256.649)" fill="#FFF" stroke="#FFF" stroke-width=".5" stroke-miterlimit="10" font-family="sans-serif" font-size="20">120</text><text transform="translate(91.475 184.649)" fill="#FFF" stroke="#FFF" stroke-width=".5" stroke-miterlimit="10" font-family="sans-serif" font-size="20">140</text><text transform="translate(125.284 123.649)" fill="#FFF" stroke="#FFF" stroke-width=".5" stroke-miterlimit="10" font-family="sans-serif" font-size="20">160</text><text transform="translate(175.38 242.19)" fill="#FFF" stroke="#FFF" stroke-width=".5" stroke-miterlimit="10" font-family="sans-serif" font-size="14">KNOTS</text><text transform="translate(161.309 165.19)" fill="#FFF" stroke="#FFF" stroke-width=".5" stroke-miterlimit="10" font-family="sans-serif" font-size="14">AIR SPEED</text><text transform="translate(194.66 99.649)" fill="#FFF" stroke="#FFF" stroke-width=".5" stroke-miterlimit="10" font-family="sans-serif" font-size="20">0</text></svg>