<svg xmlns="http://www.w3.org/2000/svg" width="400.667" height="400.666" viewBox="0 0 400.667 400.666"><circle fill="#232323" cx="200.333" cy="200" r="161"/><path fill="none" stroke="#FFF" stroke-width="4" stroke-miterlimit="10" d="M50.234 200h23.433m20.53-106.136l16.57 16.57m89.566-60.532v23.432m106.135 20.531L289.9 110.434m58.683 113.047l-23.143-3.667m23.143-43.293l-23.143 3.664m-18.973 125.952L289.9 289.566M200.332 350.1l.001-23.434M94.196 306.137l16.571-16.571"/><path fill="none" stroke="#FFF" stroke-width="2" stroke-miterlimit="10" d="M50.697 188.224l15.93 1.253M52.082 176.52l15.783 2.499M54.381 164.96l15.538 3.729m-12.338-15.073l15.196 4.938M61.66 142.559l14.762 6.115m-9.828-16.819l14.237 7.255m-8.478-17.538l13.624 8.35m-7.077-18.15l12.927 9.393m-5.63-18.648l12.15 10.378m-47.65 98.882l15.93-1.254m-14.544 12.958l15.783-2.501m-13.484 14.061l15.538-3.732m-12.338 15.075l15.197-4.94m-11.118 15.997l14.762-6.117m-9.828 16.82l14.238-7.257m-8.479 17.54l13.624-8.352m-7.076 18.151l12.927-9.395m-5.63 18.65l12.149-10.38m13.762 34.331l9.39-12.93m10.692 25.236l7.252-14.239m14.508 23.252l4.935-15.198m17.966 20.697l2.498-15.784m44.463 15.784l-2.502-15.783m25.404 10.284l-4.94-15.196m26.7 6.183l-7.257-14.237m27.339 1.931l-9.394-12.926m42.6-20.279l-12.93-9.391m25.237-10.691l-14.239-7.253m23.252-14.507l-15.198-4.936m15.199-87.828l-15.197 4.94m6.184-26.7l-14.238 7.256m1.931-27.339l-12.927 9.395m-20.279-42.601l-9.391 12.93m-10.691-25.236l-7.252 14.239m-14.508-23.252l-4.935 15.198m-17.967-20.697l-2.497 15.784m-44.463-15.784l2.502 15.783m-25.404-10.285l4.94 15.197m-26.7-6.183l7.257 14.236m-27.339-1.93l9.394 12.926m215.506 86.855s3 8.314 3 21.98c0 13.167-3 21.315-3 21.315"/><text transform="translate(83.197 208.167)" fill="#FFF" stroke="#FFF" stroke-miterlimit="10" font-family="sans-serif" font-size="25">0</text><path fill="none" stroke="#FFF" stroke-width="2" stroke-miterlimit="10" d="M121.417 181.292h-36.25s.342-4.491 2.306-11.307c1.694-5.881 3.944-10.068 3.944-10.068"/><path fill="#FFF" stroke="#FFF" stroke-miterlimit="10" d="M92.042 158.554l-3.875 2.238 4.646 1.938z"/><path fill="none" stroke="#FFF" stroke-width="2" stroke-miterlimit="10" d="M121.417 218.708h-36.25s.342 4.491 2.306 11.307c1.694 5.881 3.944 10.068 3.944 10.068"/><path fill="#FFF" stroke="#FFF" stroke-miterlimit="10" d="M92.042 241.446l-3.875-2.238 4.646-1.938z"/><text transform="translate(125 184.667)" fill="#FFF" stroke="#FFF" stroke-width=".5" stroke-miterlimit="10" font-family="sans-serif" font-size="10">UP</text><text transform="translate(125 222.667)" fill="#FFF" stroke="#FFF" stroke-width=".5" stroke-miterlimit="10" font-family="sans-serif" font-size="10">DOWN</text><text transform="translate(193.66 102.149)" fill="#FFF" stroke="#FFF" stroke-width="1.5" stroke-miterlimit="10" font-family="sans-serif" font-size="25">1</text><text transform="translate(192.66 316.498)" fill="#FFF" stroke="#FFF" stroke-width="1.5" stroke-miterlimit="10" font-family="sans-serif" font-size="25">1</text><text transform="translate(112.11 131.86)" fill="#FFF" stroke="#FFF" stroke-miterlimit="10" font-family="sans-serif" font-size="25">.5</text><text transform="translate(112.11 283.531)" fill="#FFF" stroke="#FFF" stroke-miterlimit="10" font-family="sans-serif" font-size="25">.5</text><text transform="translate(258.848 135.483)"><tspan x="0" y="0" fill="#FFF" stroke="#FFF" stroke-miterlimit="10" font-family="sans-serif" font-size="25" letter-spacing="-3">1</tspan><tspan x="10.355" y="0" fill="#FFF" stroke="#FFF" stroke-miterlimit="10" font-family="sans-serif" font-size="25">.5</tspan></text><text transform="translate(261.225 281.816)"><tspan x="0" y="0" fill="#FFF" stroke="#FFF" stroke-miterlimit="10" font-family="sans-serif" font-size="25" letter-spacing="-3">1</tspan><tspan x="10.355" y="0" fill="#FFF" stroke="#FFF" stroke-miterlimit="10" font-family="sans-serif" font-size="25">.5</tspan></text><text transform="translate(304.899 208.523)" fill="#FFF" stroke="#FFF" stroke-miterlimit="10" font-family="sans-serif" font-size="25" letter-spacing="-3">2</text><text transform="translate(143.45 165.69)" fill="#FFF" stroke="#FFF" stroke-width=".5" stroke-miterlimit="10" font-family="sans-serif" font-size="14">VERTICAL SPEED</text><text transform="translate(146.45 242.358)" fill="#FFF" stroke="#FFF" stroke-width=".5" stroke-miterlimit="10" font-family="sans-serif" font-size="14">1000FT PER MIN</text></svg>